<mxfile host="65bd71144e">
    <diagram id="5ljF6mQUdyRc25bUJsSF" name="Page-1">
        <mxGraphModel dx="1165" dy="676" grid="1" gridSize="10" guides="1" tooltips="1" connect="1" arrows="1" fold="1" page="1" pageScale="1" pageWidth="1654" pageHeight="1169" math="0" shadow="0">
            <root>
                <mxCell id="0"/>
                <mxCell id="1" parent="0"/>
                <mxCell id="243" value="Utilisateur" style="swimlane;fontStyle=1;align=center;verticalAlign=top;childLayout=stackLayout;horizontal=1;startSize=26;horizontalStack=0;resizeParent=1;resizeParentMax=0;resizeLast=0;collapsible=1;marginBottom=0;fillColor=#8448B3;" vertex="1" parent="1">
                    <mxGeometry x="456" y="1605" width="219" height="346" as="geometry"/>
                </mxCell>
                <mxCell id="244" value="- Id: Integer NOT NULL" style="text;strokeColor=none;fillColor=none;align=left;verticalAlign=top;spacingLeft=4;spacingRight=4;overflow=hidden;rotatable=0;points=[[0,0.5],[1,0.5]];portConstraint=eastwest;" vertex="1" parent="243">
                    <mxGeometry y="26" width="219" height="26" as="geometry"/>
                </mxCell>
                <mxCell id="245" value="- Login: String NOT NULL" style="text;strokeColor=none;fillColor=none;align=left;verticalAlign=top;spacingLeft=4;spacingRight=4;overflow=hidden;rotatable=0;points=[[0,0.5],[1,0.5]];portConstraint=eastwest;" vertex="1" parent="243">
                    <mxGeometry y="52" width="219" height="26" as="geometry"/>
                </mxCell>
                <mxCell id="246" value="- Etudiant: String " style="text;strokeColor=none;fillColor=none;align=left;verticalAlign=top;spacingLeft=4;spacingRight=4;overflow=hidden;rotatable=0;points=[[0,0.5],[1,0.5]];portConstraint=eastwest;" vertex="1" parent="243">
                    <mxGeometry y="78" width="219" height="26" as="geometry"/>
                </mxCell>
                <mxCell id="247" value="- Entreprise : String" style="text;strokeColor=none;fillColor=none;align=left;verticalAlign=top;spacingLeft=4;spacingRight=4;overflow=hidden;rotatable=0;points=[[0,0.5],[1,0.5]];portConstraint=eastwest;" vertex="1" parent="243">
                    <mxGeometry y="104" width="219" height="26" as="geometry"/>
                </mxCell>
                <mxCell id="248" value="- GoogleToken : String" style="text;strokeColor=none;fillColor=none;align=left;verticalAlign=top;spacingLeft=4;spacingRight=4;overflow=hidden;rotatable=0;points=[[0,0.5],[1,0.5]];portConstraint=eastwest;" vertex="1" parent="243">
                    <mxGeometry y="130" width="219" height="26" as="geometry"/>
                </mxCell>
                <mxCell id="249" value="- Uid : String NOT NULL" style="text;strokeColor=none;fillColor=none;align=left;verticalAlign=top;spacingLeft=4;spacingRight=4;overflow=hidden;rotatable=0;points=[[0,0.5],[1,0.5]];portConstraint=eastwest;" vertex="1" parent="243">
                    <mxGeometry y="156" width="219" height="26" as="geometry"/>
                </mxCell>
                <mxCell id="250" value="" style="line;strokeWidth=1;fillColor=none;align=left;verticalAlign=middle;spacingTop=-1;spacingLeft=3;spacingRight=3;rotatable=0;labelPosition=right;points=[];portConstraint=eastwest;" vertex="1" parent="243">
                    <mxGeometry y="182" width="219" height="8" as="geometry"/>
                </mxCell>
                <mxCell id="347" value="HTTP" style="text;strokeColor=none;fillColor=none;align=center;verticalAlign=top;spacingLeft=4;spacingRight=4;overflow=hidden;rotatable=0;points=[[0,0.5],[1,0.5]];portConstraint=eastwest;" vertex="1" parent="243">
                    <mxGeometry y="190" width="219" height="26" as="geometry"/>
                </mxCell>
                <mxCell id="251" value=" GET()" style="text;strokeColor=none;fillColor=none;align=left;verticalAlign=top;spacingLeft=4;spacingRight=4;overflow=hidden;rotatable=0;points=[[0,0.5],[1,0.5]];portConstraint=eastwest;" vertex="1" parent="243">
                    <mxGeometry y="216" width="219" height="26" as="geometry"/>
                </mxCell>
                <mxCell id="252" value=" GET(id)" style="text;strokeColor=none;fillColor=none;align=left;verticalAlign=top;spacingLeft=4;spacingRight=4;overflow=hidden;rotatable=0;points=[[0,0.5],[1,0.5]];portConstraint=eastwest;" vertex="1" parent="243">
                    <mxGeometry y="242" width="219" height="26" as="geometry"/>
                </mxCell>
                <mxCell id="253" value=" POST(login, GoogleToken, Uid)" style="text;strokeColor=none;fillColor=none;align=left;verticalAlign=top;spacingLeft=4;spacingRight=4;overflow=hidden;rotatable=0;points=[[0,0.5],[1,0.5]];portConstraint=eastwest;" vertex="1" parent="243">
                    <mxGeometry y="268" width="219" height="26" as="geometry"/>
                </mxCell>
                <mxCell id="254" value=" DELETE(id)" style="text;strokeColor=none;fillColor=none;align=left;verticalAlign=top;spacingLeft=4;spacingRight=4;overflow=hidden;rotatable=0;points=[[0,0.5],[1,0.5]];portConstraint=eastwest;" vertex="1" parent="243">
                    <mxGeometry y="294" width="219" height="26" as="geometry"/>
                </mxCell>
                <mxCell id="255" value=" PATCH(id) " style="text;strokeColor=none;fillColor=none;align=left;verticalAlign=top;spacingLeft=4;spacingRight=4;overflow=hidden;rotatable=0;points=[[0,0.5],[1,0.5]];portConstraint=eastwest;" vertex="1" parent="243">
                    <mxGeometry y="320" width="219" height="26" as="geometry"/>
                </mxCell>
                <mxCell id="257" value="message" style="swimlane;fontStyle=1;align=center;verticalAlign=top;childLayout=stackLayout;horizontal=1;startSize=26;horizontalStack=0;resizeParent=1;resizeParentMax=0;resizeLast=0;collapsible=1;marginBottom=0;fillColor=#8448B3;" vertex="1" parent="1">
                    <mxGeometry x="1080" y="1592" width="200" height="372" as="geometry"/>
                </mxCell>
                <mxCell id="258" value="- id: Integer NOT NULL" style="text;strokeColor=none;fillColor=none;align=left;verticalAlign=top;spacingLeft=4;spacingRight=4;overflow=hidden;rotatable=0;points=[[0,0.5],[1,0.5]];portConstraint=eastwest;" vertex="1" parent="257">
                    <mxGeometry y="26" width="200" height="26" as="geometry"/>
                </mxCell>
                <mxCell id="259" value="- Date : Date" style="text;strokeColor=none;fillColor=none;align=left;verticalAlign=top;spacingLeft=4;spacingRight=4;overflow=hidden;rotatable=0;points=[[0,0.5],[1,0.5]];portConstraint=eastwest;" vertex="1" parent="257">
                    <mxGeometry y="52" width="200" height="26" as="geometry"/>
                </mxCell>
                <mxCell id="260" value="- Contenu : String" style="text;strokeColor=none;fillColor=none;align=left;verticalAlign=top;spacingLeft=4;spacingRight=4;overflow=hidden;rotatable=0;points=[[0,0.5],[1,0.5]];portConstraint=eastwest;" vertex="1" parent="257">
                    <mxGeometry y="78" width="200" height="26" as="geometry"/>
                </mxCell>
                <mxCell id="261" value="- Expediteur : String" style="text;strokeColor=none;fillColor=none;align=left;verticalAlign=top;spacingLeft=4;spacingRight=4;overflow=hidden;rotatable=0;points=[[0,0.5],[1,0.5]];portConstraint=eastwest;" vertex="1" parent="257">
                    <mxGeometry y="104" width="200" height="26" as="geometry"/>
                </mxCell>
                <mxCell id="262" value="- Destinataire: String" style="text;strokeColor=none;fillColor=none;align=left;verticalAlign=top;spacingLeft=4;spacingRight=4;overflow=hidden;rotatable=0;points=[[0,0.5],[1,0.5]];portConstraint=eastwest;" vertex="1" parent="257">
                    <mxGeometry y="130" width="200" height="26" as="geometry"/>
                </mxCell>
                <mxCell id="399" value="- Correspondance : Array" style="text;strokeColor=none;fillColor=none;align=left;verticalAlign=top;spacingLeft=4;spacingRight=4;overflow=hidden;rotatable=0;points=[[0,0.5],[1,0.5]];portConstraint=eastwest;" vertex="1" parent="257">
                    <mxGeometry y="156" width="200" height="26" as="geometry"/>
                </mxCell>
                <mxCell id="398" value="- Etudiant : Array" style="text;strokeColor=none;fillColor=none;align=left;verticalAlign=top;spacingLeft=4;spacingRight=4;overflow=hidden;rotatable=0;points=[[0,0.5],[1,0.5]];portConstraint=eastwest;" vertex="1" parent="257">
                    <mxGeometry y="182" width="200" height="26" as="geometry"/>
                </mxCell>
                <mxCell id="397" value="- Entreprise : Array" style="text;strokeColor=none;fillColor=none;align=left;verticalAlign=top;spacingLeft=4;spacingRight=4;overflow=hidden;rotatable=0;points=[[0,0.5],[1,0.5]];portConstraint=eastwest;" vertex="1" parent="257">
                    <mxGeometry y="208" width="200" height="26" as="geometry"/>
                </mxCell>
                <mxCell id="263" value="" style="line;strokeWidth=1;fillColor=none;align=left;verticalAlign=middle;spacingTop=-1;spacingLeft=3;spacingRight=3;rotatable=0;labelPosition=right;points=[];portConstraint=eastwest;" vertex="1" parent="257">
                    <mxGeometry y="234" width="200" height="8" as="geometry"/>
                </mxCell>
                <mxCell id="264" value="HTTP" style="text;strokeColor=none;fillColor=none;align=center;verticalAlign=top;spacingLeft=4;spacingRight=4;overflow=hidden;rotatable=0;points=[[0,0.5],[1,0.5]];portConstraint=eastwest;" vertex="1" parent="257">
                    <mxGeometry y="242" width="200" height="26" as="geometry"/>
                </mxCell>
                <mxCell id="265" value=" GET()" style="text;strokeColor=none;fillColor=none;align=left;verticalAlign=top;spacingLeft=4;spacingRight=4;overflow=hidden;rotatable=0;points=[[0,0.5],[1,0.5]];portConstraint=eastwest;" vertex="1" parent="257">
                    <mxGeometry y="268" width="200" height="26" as="geometry"/>
                </mxCell>
                <mxCell id="266" value=" GET(id)" style="text;strokeColor=none;fillColor=none;align=left;verticalAlign=top;spacingLeft=4;spacingRight=4;overflow=hidden;rotatable=0;points=[[0,0.5],[1,0.5]];portConstraint=eastwest;" vertex="1" parent="257">
                    <mxGeometry y="294" width="200" height="26" as="geometry"/>
                </mxCell>
                <mxCell id="400" value=" POST(body)" style="text;strokeColor=none;fillColor=none;align=left;verticalAlign=top;spacingLeft=4;spacingRight=4;overflow=hidden;rotatable=0;points=[[0,0.5],[1,0.5]];portConstraint=eastwest;" vertex="1" parent="257">
                    <mxGeometry y="320" width="200" height="26" as="geometry"/>
                </mxCell>
                <mxCell id="401" value=" DELETE(id)" style="text;strokeColor=none;fillColor=none;align=left;verticalAlign=top;spacingLeft=4;spacingRight=4;overflow=hidden;rotatable=0;points=[[0,0.5],[1,0.5]];portConstraint=eastwest;" vertex="1" parent="257">
                    <mxGeometry y="346" width="200" height="26" as="geometry"/>
                </mxCell>
                <mxCell id="267" value="correspondance" style="swimlane;fontStyle=1;align=center;verticalAlign=top;childLayout=stackLayout;horizontal=1;startSize=26;horizontalStack=0;resizeParent=1;resizeParentMax=0;resizeLast=0;collapsible=1;marginBottom=0;fillColor=#8448B3;" vertex="1" parent="1">
                    <mxGeometry x="805" y="1592" width="195" height="372" as="geometry"/>
                </mxCell>
                <mxCell id="268" value="- id: Interger NOT NULL" style="text;strokeColor=none;fillColor=none;align=left;verticalAlign=top;spacingLeft=4;spacingRight=4;overflow=hidden;rotatable=0;points=[[0,0.5],[1,0.5]];portConstraint=eastwest;" vertex="1" parent="267">
                    <mxGeometry y="26" width="195" height="26" as="geometry"/>
                </mxCell>
                <mxCell id="269" value="- Date: Date" style="text;strokeColor=none;fillColor=none;align=left;verticalAlign=top;spacingLeft=4;spacingRight=4;overflow=hidden;rotatable=0;points=[[0,0.5],[1,0.5]];portConstraint=eastwest;" vertex="1" parent="267">
                    <mxGeometry y="52" width="195" height="26" as="geometry"/>
                </mxCell>
                <mxCell id="270" value="- idEtudiantCible: Integer" style="text;strokeColor=none;fillColor=none;align=left;verticalAlign=top;spacingLeft=4;spacingRight=4;overflow=hidden;rotatable=0;points=[[0,0.5],[1,0.5]];portConstraint=eastwest;" vertex="1" parent="267">
                    <mxGeometry y="78" width="195" height="26" as="geometry"/>
                </mxCell>
                <mxCell id="396" value="- idEntrepriseCible: Integer" style="text;strokeColor=none;fillColor=none;align=left;verticalAlign=top;spacingLeft=4;spacingRight=4;overflow=hidden;rotatable=0;points=[[0,0.5],[1,0.5]];portConstraint=eastwest;" vertex="1" parent="267">
                    <mxGeometry y="104" width="195" height="26" as="geometry"/>
                </mxCell>
                <mxCell id="395" value="- Statut : Boolean" style="text;strokeColor=none;fillColor=none;align=left;verticalAlign=top;spacingLeft=4;spacingRight=4;overflow=hidden;rotatable=0;points=[[0,0.5],[1,0.5]];portConstraint=eastwest;" vertex="1" parent="267">
                    <mxGeometry y="130" width="195" height="26" as="geometry"/>
                </mxCell>
                <mxCell id="394" value="- Candidature: Array" style="text;strokeColor=none;fillColor=none;align=left;verticalAlign=top;spacingLeft=4;spacingRight=4;overflow=hidden;rotatable=0;points=[[0,0.5],[1,0.5]];portConstraint=eastwest;" vertex="1" parent="267">
                    <mxGeometry y="156" width="195" height="26" as="geometry"/>
                </mxCell>
                <mxCell id="393" value="- Annonce: Array" style="text;strokeColor=none;fillColor=none;align=left;verticalAlign=top;spacingLeft=4;spacingRight=4;overflow=hidden;rotatable=0;points=[[0,0.5],[1,0.5]];portConstraint=eastwest;" vertex="1" parent="267">
                    <mxGeometry y="182" width="195" height="26" as="geometry"/>
                </mxCell>
                <mxCell id="392" value="- Message: Array" style="text;strokeColor=none;fillColor=none;align=left;verticalAlign=top;spacingLeft=4;spacingRight=4;overflow=hidden;rotatable=0;points=[[0,0.5],[1,0.5]];portConstraint=eastwest;" vertex="1" parent="267">
                    <mxGeometry y="208" width="195" height="26" as="geometry"/>
                </mxCell>
                <mxCell id="271" value="" style="line;strokeWidth=1;fillColor=none;align=left;verticalAlign=middle;spacingTop=-1;spacingLeft=3;spacingRight=3;rotatable=0;labelPosition=right;points=[];portConstraint=eastwest;" vertex="1" parent="267">
                    <mxGeometry y="234" width="195" height="8" as="geometry"/>
                </mxCell>
                <mxCell id="272" value="HTTP" style="text;strokeColor=none;fillColor=none;align=center;verticalAlign=top;spacingLeft=4;spacingRight=4;overflow=hidden;rotatable=0;points=[[0,0.5],[1,0.5]];portConstraint=eastwest;" vertex="1" parent="267">
                    <mxGeometry y="242" width="195" height="26" as="geometry"/>
                </mxCell>
                <mxCell id="390" value=" GET()" style="text;strokeColor=none;fillColor=none;align=left;verticalAlign=top;spacingLeft=4;spacingRight=4;overflow=hidden;rotatable=0;points=[[0,0.5],[1,0.5]];portConstraint=eastwest;" vertex="1" parent="267">
                    <mxGeometry y="268" width="195" height="26" as="geometry"/>
                </mxCell>
                <mxCell id="389" value=" GET(id)" style="text;strokeColor=none;fillColor=none;align=left;verticalAlign=top;spacingLeft=4;spacingRight=4;overflow=hidden;rotatable=0;points=[[0,0.5],[1,0.5]];portConstraint=eastwest;" vertex="1" parent="267">
                    <mxGeometry y="294" width="195" height="26" as="geometry"/>
                </mxCell>
                <mxCell id="388" value=" POST(body)" style="text;strokeColor=none;fillColor=none;align=left;verticalAlign=top;spacingLeft=4;spacingRight=4;overflow=hidden;rotatable=0;points=[[0,0.5],[1,0.5]];portConstraint=eastwest;" vertex="1" parent="267">
                    <mxGeometry y="320" width="195" height="26" as="geometry"/>
                </mxCell>
                <mxCell id="391" value=" DELETE(id)" style="text;strokeColor=none;fillColor=none;align=left;verticalAlign=top;spacingLeft=4;spacingRight=4;overflow=hidden;rotatable=0;points=[[0,0.5],[1,0.5]];portConstraint=eastwest;" vertex="1" parent="267">
                    <mxGeometry y="346" width="195" height="26" as="geometry"/>
                </mxCell>
                <mxCell id="273" value="Etudiant" style="swimlane;fontStyle=1;align=center;verticalAlign=top;childLayout=stackLayout;horizontal=1;startSize=26;horizontalStack=0;resizeParent=1;resizeParentMax=0;resizeLast=0;collapsible=1;marginBottom=0;fillColor=#F4974B;" vertex="1" parent="1">
                    <mxGeometry x="454" y="877" width="220" height="658" as="geometry"/>
                </mxCell>
                <mxCell id="274" value="- Id : Integer NOT NULL" style="text;strokeColor=none;fillColor=none;align=left;verticalAlign=top;spacingLeft=4;spacingRight=4;overflow=hidden;rotatable=0;points=[[0,0.5],[1,0.5]];portConstraint=eastwest;" vertex="1" parent="273">
                    <mxGeometry y="26" width="220" height="26" as="geometry"/>
                </mxCell>
                <mxCell id="275" value="- Utilisateur : String" style="text;strokeColor=none;fillColor=none;align=left;verticalAlign=top;spacingLeft=4;spacingRight=4;overflow=hidden;rotatable=0;points=[[0,0.5],[1,0.5]];portConstraint=eastwest;" vertex="1" parent="273">
                    <mxGeometry y="52" width="220" height="26" as="geometry"/>
                </mxCell>
                <mxCell id="276" value="- Nom : String" style="text;strokeColor=none;fillColor=none;align=left;verticalAlign=top;spacingLeft=4;spacingRight=4;overflow=hidden;rotatable=0;points=[[0,0.5],[1,0.5]];portConstraint=eastwest;" vertex="1" parent="273">
                    <mxGeometry y="78" width="220" height="26" as="geometry"/>
                </mxCell>
                <mxCell id="277" value="- prenom : String" style="text;strokeColor=none;fillColor=none;align=left;verticalAlign=top;spacingLeft=4;spacingRight=4;overflow=hidden;rotatable=0;points=[[0,0.5],[1,0.5]];portConstraint=eastwest;" vertex="1" parent="273">
                    <mxGeometry y="104" width="220" height="26" as="geometry"/>
                </mxCell>
                <mxCell id="278" value="- Date de Naissance : String" style="text;strokeColor=none;fillColor=none;align=left;verticalAlign=top;spacingLeft=4;spacingRight=4;overflow=hidden;rotatable=0;points=[[0,0.5],[1,0.5]];portConstraint=eastwest;" vertex="1" parent="273">
                    <mxGeometry y="130" width="220" height="26" as="geometry"/>
                </mxCell>
                <mxCell id="279" value="- Email : String" style="text;strokeColor=none;fillColor=none;align=left;verticalAlign=top;spacingLeft=4;spacingRight=4;overflow=hidden;rotatable=0;points=[[0,0.5],[1,0.5]];portConstraint=eastwest;" vertex="1" parent="273">
                    <mxGeometry y="156" width="220" height="26" as="geometry"/>
                </mxCell>
                <mxCell id="280" value="- Photo : String" style="text;strokeColor=none;fillColor=none;align=left;verticalAlign=top;spacingLeft=4;spacingRight=4;overflow=hidden;rotatable=0;points=[[0,0.5],[1,0.5]];portConstraint=eastwest;" vertex="1" parent="273">
                    <mxGeometry y="182" width="220" height="26" as="geometry"/>
                </mxCell>
                <mxCell id="363" value="- Telephone : Integer" style="text;strokeColor=none;fillColor=none;align=left;verticalAlign=top;spacingLeft=4;spacingRight=4;overflow=hidden;rotatable=0;points=[[0,0.5],[1,0.5]];portConstraint=eastwest;" vertex="1" parent="273">
                    <mxGeometry y="208" width="220" height="26" as="geometry"/>
                </mxCell>
                <mxCell id="362" value="- Niveau d'étude : String" style="text;strokeColor=none;fillColor=none;align=left;verticalAlign=top;spacingLeft=4;spacingRight=4;overflow=hidden;rotatable=0;points=[[0,0.5],[1,0.5]];portConstraint=eastwest;" vertex="1" parent="273">
                    <mxGeometry y="234" width="220" height="26" as="geometry"/>
                </mxCell>
                <mxCell id="361" value="- Type de recherche : String" style="text;strokeColor=none;fillColor=none;align=left;verticalAlign=top;spacingLeft=4;spacingRight=4;overflow=hidden;rotatable=0;points=[[0,0.5],[1,0.5]];portConstraint=eastwest;" vertex="1" parent="273">
                    <mxGeometry y="260" width="220" height="26" as="geometry"/>
                </mxCell>
                <mxCell id="360" value="- Zone de recherche : String" style="text;strokeColor=none;fillColor=none;align=left;verticalAlign=top;spacingLeft=4;spacingRight=4;overflow=hidden;rotatable=0;points=[[0,0.5],[1,0.5]];portConstraint=eastwest;" vertex="1" parent="273">
                    <mxGeometry y="286" width="220" height="26" as="geometry"/>
                </mxCell>
                <mxCell id="359" value="- Cv : String" style="text;strokeColor=none;fillColor=none;align=left;verticalAlign=top;spacingLeft=4;spacingRight=4;overflow=hidden;rotatable=0;points=[[0,0.5],[1,0.5]];portConstraint=eastwest;" vertex="1" parent="273">
                    <mxGeometry y="312" width="220" height="26" as="geometry"/>
                </mxCell>
                <mxCell id="358" value="- Adresse : String" style="text;strokeColor=none;fillColor=none;align=left;verticalAlign=top;spacingLeft=4;spacingRight=4;overflow=hidden;rotatable=0;points=[[0,0.5],[1,0.5]];portConstraint=eastwest;" vertex="1" parent="273">
                    <mxGeometry y="338" width="220" height="26" as="geometry"/>
                </mxCell>
                <mxCell id="357" value="- Candidatures : Array" style="text;strokeColor=none;fillColor=none;align=left;verticalAlign=top;spacingLeft=4;spacingRight=4;overflow=hidden;rotatable=0;points=[[0,0.5],[1,0.5]];portConstraint=eastwest;" vertex="1" parent="273">
                    <mxGeometry y="364" width="220" height="26" as="geometry"/>
                </mxCell>
                <mxCell id="356" value="- Annonces : String" style="text;strokeColor=none;fillColor=none;align=left;verticalAlign=top;spacingLeft=4;spacingRight=4;overflow=hidden;rotatable=0;points=[[0,0.5],[1,0.5]];portConstraint=eastwest;" vertex="1" parent="273">
                    <mxGeometry y="390" width="220" height="26" as="geometry"/>
                </mxCell>
                <mxCell id="355" value="- Messages : String" style="text;strokeColor=none;fillColor=none;align=left;verticalAlign=top;spacingLeft=4;spacingRight=4;overflow=hidden;rotatable=0;points=[[0,0.5],[1,0.5]];portConstraint=eastwest;" vertex="1" parent="273">
                    <mxGeometry y="416" width="220" height="26" as="geometry"/>
                </mxCell>
                <mxCell id="354" value="- Tag : Array" style="text;strokeColor=none;fillColor=none;align=left;verticalAlign=top;spacingLeft=4;spacingRight=4;overflow=hidden;rotatable=0;points=[[0,0.5],[1,0.5]];portConstraint=eastwest;" vertex="1" parent="273">
                    <mxGeometry y="442" width="220" height="26" as="geometry"/>
                </mxCell>
                <mxCell id="353" value="- Description : String" style="text;strokeColor=none;fillColor=none;align=left;verticalAlign=top;spacingLeft=4;spacingRight=4;overflow=hidden;rotatable=0;points=[[0,0.5],[1,0.5]];portConstraint=eastwest;" vertex="1" parent="273">
                    <mxGeometry y="468" width="220" height="26" as="geometry"/>
                </mxCell>
                <mxCell id="281" value="" style="line;strokeWidth=1;fillColor=none;align=left;verticalAlign=middle;spacingTop=-1;spacingLeft=3;spacingRight=3;rotatable=0;labelPosition=right;points=[];portConstraint=eastwest;" vertex="1" parent="273">
                    <mxGeometry y="494" width="220" height="8" as="geometry"/>
                </mxCell>
                <mxCell id="282" value="HTTP" style="text;strokeColor=none;fillColor=none;align=center;verticalAlign=top;spacingLeft=4;spacingRight=4;overflow=hidden;rotatable=0;points=[[0,0.5],[1,0.5]];portConstraint=eastwest;" vertex="1" parent="273">
                    <mxGeometry y="502" width="220" height="26" as="geometry"/>
                </mxCell>
                <mxCell id="373" value=" GET()" style="text;strokeColor=none;fillColor=none;align=left;verticalAlign=top;spacingLeft=4;spacingRight=4;overflow=hidden;rotatable=0;points=[[0,0.5],[1,0.5]];portConstraint=eastwest;" vertex="1" parent="273">
                    <mxGeometry y="528" width="220" height="26" as="geometry"/>
                </mxCell>
                <mxCell id="372" value=" GET(id)" style="text;strokeColor=none;fillColor=none;align=left;verticalAlign=top;spacingLeft=4;spacingRight=4;overflow=hidden;rotatable=0;points=[[0,0.5],[1,0.5]];portConstraint=eastwest;" vertex="1" parent="273">
                    <mxGeometry y="554" width="220" height="26" as="geometry"/>
                </mxCell>
                <mxCell id="371" value=" POST(body)" style="text;strokeColor=none;fillColor=none;align=left;verticalAlign=top;spacingLeft=4;spacingRight=4;overflow=hidden;rotatable=0;points=[[0,0.5],[1,0.5]];portConstraint=eastwest;" vertex="1" parent="273">
                    <mxGeometry y="580" width="220" height="26" as="geometry"/>
                </mxCell>
                <mxCell id="370" value=" DELETE(id)" style="text;strokeColor=none;fillColor=none;align=left;verticalAlign=top;spacingLeft=4;spacingRight=4;overflow=hidden;rotatable=0;points=[[0,0.5],[1,0.5]];portConstraint=eastwest;" vertex="1" parent="273">
                    <mxGeometry y="606" width="220" height="26" as="geometry"/>
                </mxCell>
                <mxCell id="383" value=" PATCH(id) " style="text;strokeColor=none;fillColor=none;align=left;verticalAlign=top;spacingLeft=4;spacingRight=4;overflow=hidden;rotatable=0;points=[[0,0.5],[1,0.5]];portConstraint=eastwest;" vertex="1" parent="273">
                    <mxGeometry y="632" width="220" height="26" as="geometry"/>
                </mxCell>
                <mxCell id="283" value="Enterprise" style="swimlane;fontStyle=1;align=center;verticalAlign=top;childLayout=stackLayout;horizontal=1;startSize=26;horizontalStack=0;resizeParent=1;resizeParentMax=0;resizeLast=0;collapsible=1;marginBottom=0;fillColor=#000099;" vertex="1" parent="1">
                    <mxGeometry x="456" y="2000" width="220" height="554" as="geometry"/>
                </mxCell>
                <mxCell id="284" value="- Id : Integer NOT NULL" style="text;align=left;verticalAlign=top;spacingLeft=4;spacingRight=4;overflow=hidden;rotatable=0;points=[[0,0.5],[1,0.5]];portConstraint=eastwest;" vertex="1" parent="283">
                    <mxGeometry y="26" width="220" height="26" as="geometry"/>
                </mxCell>
                <mxCell id="285" value="- Utilisateur : String" style="text;strokeColor=none;fillColor=none;align=left;verticalAlign=top;spacingLeft=4;spacingRight=4;overflow=hidden;rotatable=0;points=[[0,0.5],[1,0.5]];portConstraint=eastwest;" vertex="1" parent="283">
                    <mxGeometry y="52" width="220" height="26" as="geometry"/>
                </mxCell>
                <mxCell id="286" value="- Siren : string" style="text;strokeColor=none;fillColor=none;align=left;verticalAlign=top;spacingLeft=4;spacingRight=4;overflow=hidden;rotatable=0;points=[[0,0.5],[1,0.5]];portConstraint=eastwest;" vertex="1" parent="283">
                    <mxGeometry y="78" width="220" height="26" as="geometry"/>
                </mxCell>
                <mxCell id="346" value="- Nom : String" style="text;strokeColor=none;fillColor=none;align=left;verticalAlign=top;spacingLeft=4;spacingRight=4;overflow=hidden;rotatable=0;points=[[0,0.5],[1,0.5]];portConstraint=eastwest;" vertex="1" parent="283">
                    <mxGeometry y="104" width="220" height="26" as="geometry"/>
                </mxCell>
                <mxCell id="345" value="- Email : String" style="text;strokeColor=none;fillColor=none;align=left;verticalAlign=top;spacingLeft=4;spacingRight=4;overflow=hidden;rotatable=0;points=[[0,0.5],[1,0.5]];portConstraint=eastwest;" vertex="1" parent="283">
                    <mxGeometry y="130" width="220" height="26" as="geometry"/>
                </mxCell>
                <mxCell id="344" value="- Photo : String" style="text;strokeColor=none;fillColor=none;align=left;verticalAlign=top;spacingLeft=4;spacingRight=4;overflow=hidden;rotatable=0;points=[[0,0.5],[1,0.5]];portConstraint=eastwest;" vertex="1" parent="283">
                    <mxGeometry y="156" width="220" height="26" as="geometry"/>
                </mxCell>
                <mxCell id="343" value="- Telephone : String" style="text;strokeColor=none;fillColor=none;align=left;verticalAlign=top;spacingLeft=4;spacingRight=4;overflow=hidden;rotatable=0;points=[[0,0.5],[1,0.5]];portConstraint=eastwest;" vertex="1" parent="283">
                    <mxGeometry y="182" width="220" height="26" as="geometry"/>
                </mxCell>
                <mxCell id="342" value="- Interocuteur : String" style="text;strokeColor=none;fillColor=none;align=left;verticalAlign=top;spacingLeft=4;spacingRight=4;overflow=hidden;rotatable=0;points=[[0,0.5],[1,0.5]];portConstraint=eastwest;" vertex="1" parent="283">
                    <mxGeometry y="208" width="220" height="26" as="geometry"/>
                </mxCell>
                <mxCell id="341" value="- Adresse : String" style="text;strokeColor=none;fillColor=none;align=left;verticalAlign=top;spacingLeft=4;spacingRight=4;overflow=hidden;rotatable=0;points=[[0,0.5],[1,0.5]];portConstraint=eastwest;" vertex="1" parent="283">
                    <mxGeometry y="234" width="220" height="26" as="geometry"/>
                </mxCell>
                <mxCell id="340" value="- Candidatures : String" style="text;strokeColor=none;fillColor=none;align=left;verticalAlign=top;spacingLeft=4;spacingRight=4;overflow=hidden;rotatable=0;points=[[0,0.5],[1,0.5]];portConstraint=eastwest;" vertex="1" parent="283">
                    <mxGeometry y="260" width="220" height="26" as="geometry"/>
                </mxCell>
                <mxCell id="339" value="- Annonces : String" style="text;strokeColor=none;fillColor=none;align=left;verticalAlign=top;spacingLeft=4;spacingRight=4;overflow=hidden;rotatable=0;points=[[0,0.5],[1,0.5]];portConstraint=eastwest;" vertex="1" parent="283">
                    <mxGeometry y="286" width="220" height="26" as="geometry"/>
                </mxCell>
                <mxCell id="338" value="- Messages : String" style="text;strokeColor=none;fillColor=none;align=left;verticalAlign=top;spacingLeft=4;spacingRight=4;overflow=hidden;rotatable=0;points=[[0,0.5],[1,0.5]];portConstraint=eastwest;" vertex="1" parent="283">
                    <mxGeometry y="312" width="220" height="26" as="geometry"/>
                </mxCell>
                <mxCell id="337" value="- Tag : String" style="text;strokeColor=none;fillColor=none;align=left;verticalAlign=top;spacingLeft=4;spacingRight=4;overflow=hidden;rotatable=0;points=[[0,0.5],[1,0.5]];portConstraint=eastwest;" vertex="1" parent="283">
                    <mxGeometry y="338" width="220" height="26" as="geometry"/>
                </mxCell>
                <mxCell id="336" value="- Description : String" style="text;strokeColor=none;fillColor=none;align=left;verticalAlign=top;spacingLeft=4;spacingRight=4;overflow=hidden;rotatable=0;points=[[0,0.5],[1,0.5]];portConstraint=eastwest;" vertex="1" parent="283">
                    <mxGeometry y="364" width="220" height="26" as="geometry"/>
                </mxCell>
                <mxCell id="287" value="" style="line;strokeWidth=1;fillColor=none;align=left;verticalAlign=middle;spacingTop=-1;spacingLeft=3;spacingRight=3;rotatable=0;labelPosition=right;points=[];portConstraint=eastwest;" vertex="1" parent="283">
                    <mxGeometry y="390" width="220" height="8" as="geometry"/>
                </mxCell>
                <mxCell id="288" value="HTTP" style="text;strokeColor=none;fillColor=none;align=center;verticalAlign=top;spacingLeft=4;spacingRight=4;overflow=hidden;rotatable=0;points=[[0,0.5],[1,0.5]];portConstraint=eastwest;" vertex="1" parent="283">
                    <mxGeometry y="398" width="220" height="26" as="geometry"/>
                </mxCell>
                <mxCell id="348" value="GET()" style="text;strokeColor=none;fillColor=none;align=left;verticalAlign=top;spacingLeft=4;spacingRight=4;overflow=hidden;rotatable=0;points=[[0,0.5],[1,0.5]];portConstraint=eastwest;" vertex="1" parent="283">
                    <mxGeometry y="424" width="220" height="26" as="geometry"/>
                </mxCell>
                <mxCell id="352" value="GET(id)" style="text;strokeColor=none;fillColor=none;align=left;verticalAlign=top;spacingLeft=4;spacingRight=4;overflow=hidden;rotatable=0;points=[[0,0.5],[1,0.5]];portConstraint=eastwest;" vertex="1" parent="283">
                    <mxGeometry y="450" width="220" height="26" as="geometry"/>
                </mxCell>
                <mxCell id="351" value="POST(body)" style="text;strokeColor=none;fillColor=none;align=left;verticalAlign=top;spacingLeft=4;spacingRight=4;overflow=hidden;rotatable=0;points=[[0,0.5],[1,0.5]];portConstraint=eastwest;" vertex="1" parent="283">
                    <mxGeometry y="476" width="220" height="26" as="geometry"/>
                </mxCell>
                <mxCell id="350" value="DELETE(id)" style="text;strokeColor=none;fillColor=none;align=left;verticalAlign=top;spacingLeft=4;spacingRight=4;overflow=hidden;rotatable=0;points=[[0,0.5],[1,0.5]];portConstraint=eastwest;" vertex="1" parent="283">
                    <mxGeometry y="502" width="220" height="26" as="geometry"/>
                </mxCell>
                <mxCell id="349" value="PATCH(id)" style="text;strokeColor=none;fillColor=none;align=left;verticalAlign=top;spacingLeft=4;spacingRight=4;overflow=hidden;rotatable=0;points=[[0,0.5],[1,0.5]];portConstraint=eastwest;" vertex="1" parent="283">
                    <mxGeometry y="528" width="220" height="26" as="geometry"/>
                </mxCell>
                <mxCell id="289" value="" style="shape=flexArrow;endArrow=classic;html=1;entryX=0.5;entryY=0;entryDx=0;entryDy=0;exitX=0.508;exitY=0.985;exitDx=0;exitDy=0;exitPerimeter=0;" edge="1" parent="1" source="383" target="243">
                    <mxGeometry width="50" height="50" relative="1" as="geometry">
                        <mxPoint x="566" y="1540" as="sourcePoint"/>
                        <mxPoint x="1010" y="1679" as="targetPoint"/>
                    </mxGeometry>
                </mxCell>
                <mxCell id="290" value="" style="shape=flexArrow;endArrow=classic;html=1;exitX=0.5;exitY=0;exitDx=0;exitDy=0;entryX=0.501;entryY=1.063;entryDx=0;entryDy=0;entryPerimeter=0;" edge="1" parent="1" source="283" target="255">
                    <mxGeometry width="50" height="50" relative="1" as="geometry">
                        <mxPoint x="651.28" y="1496.5079999999998" as="sourcePoint"/>
                        <mxPoint x="566" y="2080" as="targetPoint"/>
                    </mxGeometry>
                </mxCell>
                <mxCell id="291" value="" style="endArrow=none;html=1;entryX=-0.003;entryY=-0.15;entryDx=0;entryDy=0;entryPerimeter=0;exitX=0.999;exitY=-0.055;exitDx=0;exitDy=0;exitPerimeter=0;" edge="1" parent="1" source="343" target="304">
                    <mxGeometry width="50" height="50" relative="1" as="geometry">
                        <mxPoint x="680" y="2180" as="sourcePoint"/>
                        <mxPoint x="761" y="1673" as="targetPoint"/>
                    </mxGeometry>
                </mxCell>
                <mxCell id="292" value="1..*" style="edgeLabel;html=1;align=center;verticalAlign=middle;resizable=0;points=[];" vertex="1" connectable="0" parent="291">
                    <mxGeometry x="0.7117" y="1" relative="1" as="geometry">
                        <mxPoint as="offset"/>
                    </mxGeometry>
                </mxCell>
                <mxCell id="293" value="1" style="edgeLabel;html=1;align=center;verticalAlign=middle;resizable=0;points=[];" vertex="1" connectable="0" parent="291">
                    <mxGeometry x="-0.7286" relative="1" as="geometry">
                        <mxPoint as="offset"/>
                    </mxGeometry>
                </mxCell>
                <mxCell id="294" value="" style="endArrow=none;html=1;exitX=0.466;exitY=0;exitDx=0;exitDy=0;entryX=0.468;entryY=1.027;entryDx=0;entryDy=0;entryPerimeter=0;exitPerimeter=0;" edge="1" parent="1" source="300" target="391">
                    <mxGeometry width="50" height="50" relative="1" as="geometry">
                        <mxPoint x="960" y="1691" as="sourcePoint"/>
                        <mxPoint x="885" y="1970" as="targetPoint"/>
                    </mxGeometry>
                </mxCell>
                <mxCell id="295" value="1" style="edgeLabel;html=1;align=center;verticalAlign=middle;resizable=0;points=[];" vertex="1" connectable="0" parent="294">
                    <mxGeometry x="-0.7431" y="2" relative="1" as="geometry">
                        <mxPoint as="offset"/>
                    </mxGeometry>
                </mxCell>
                <mxCell id="296" value="0..*" style="edgeLabel;html=1;align=center;verticalAlign=middle;resizable=0;points=[];" vertex="1" connectable="0" parent="294">
                    <mxGeometry x="0.7351" y="1" relative="1" as="geometry">
                        <mxPoint as="offset"/>
                    </mxGeometry>
                </mxCell>
                <mxCell id="297" value="" style="endArrow=none;html=1;exitX=1;exitY=0.5;exitDx=0;exitDy=0;entryX=0;entryY=0.5;entryDx=0;entryDy=0;" edge="1" parent="1" source="394" target="399">
                    <mxGeometry width="50" height="50" relative="1" as="geometry">
                        <mxPoint x="1434.8400000000001" y="1692.122" as="sourcePoint"/>
                        <mxPoint x="1060" y="1740" as="targetPoint"/>
                    </mxGeometry>
                </mxCell>
                <mxCell id="298" value="0..*" style="edgeLabel;html=1;align=center;verticalAlign=middle;resizable=0;points=[];" vertex="1" connectable="0" parent="297">
                    <mxGeometry x="0.8141" y="-1" relative="1" as="geometry">
                        <mxPoint x="-13" y="-1" as="offset"/>
                    </mxGeometry>
                </mxCell>
                <mxCell id="299" value="1" style="edgeLabel;html=1;align=center;verticalAlign=middle;resizable=0;points=[];" vertex="1" connectable="0" parent="297">
                    <mxGeometry x="-0.8749" relative="1" as="geometry">
                        <mxPoint as="offset"/>
                    </mxGeometry>
                </mxCell>
                <mxCell id="300" value="Annonce" style="swimlane;fontStyle=1;align=center;verticalAlign=top;childLayout=stackLayout;horizontal=1;startSize=26;horizontalStack=0;resizeParent=1;resizeParentMax=0;resizeLast=0;collapsible=1;marginBottom=0;fillColor=#8448B3;" vertex="1" parent="1">
                    <mxGeometry x="805" y="2080" width="195" height="424" as="geometry"/>
                </mxCell>
                <mxCell id="301" value="- id : Integer" style="text;strokeColor=none;fillColor=none;align=left;verticalAlign=top;spacingLeft=4;spacingRight=4;overflow=hidden;rotatable=0;points=[[0,0.5],[1,0.5]];portConstraint=eastwest;" vertex="1" parent="300">
                    <mxGeometry y="26" width="195" height="26" as="geometry"/>
                </mxCell>
                <mxCell id="302" value="- intitulé : string" style="text;strokeColor=none;fillColor=none;align=left;verticalAlign=top;spacingLeft=4;spacingRight=4;overflow=hidden;rotatable=0;points=[[0,0.5],[1,0.5]];portConstraint=eastwest;" vertex="1" parent="300">
                    <mxGeometry y="52" width="195" height="26" as="geometry"/>
                </mxCell>
                <mxCell id="303" value="- auteur : String" style="text;strokeColor=none;fillColor=none;align=left;verticalAlign=top;spacingLeft=4;spacingRight=4;overflow=hidden;rotatable=0;points=[[0,0.5],[1,0.5]];portConstraint=eastwest;" vertex="1" parent="300">
                    <mxGeometry y="78" width="195" height="26" as="geometry"/>
                </mxCell>
                <mxCell id="304" value="- Type de Contrat : String" style="text;strokeColor=none;fillColor=none;align=left;verticalAlign=top;spacingLeft=4;spacingRight=4;overflow=hidden;rotatable=0;points=[[0,0.5],[1,0.5]];portConstraint=eastwest;" vertex="1" parent="300">
                    <mxGeometry y="104" width="195" height="26" as="geometry"/>
                </mxCell>
                <mxCell id="382" value="- Description : String" style="text;strokeColor=none;fillColor=none;align=left;verticalAlign=top;spacingLeft=4;spacingRight=4;overflow=hidden;rotatable=0;points=[[0,0.5],[1,0.5]];portConstraint=eastwest;" vertex="1" parent="300">
                    <mxGeometry y="130" width="195" height="26" as="geometry"/>
                </mxCell>
                <mxCell id="381" value="- Etudiant : Array" style="text;strokeColor=none;fillColor=none;align=left;verticalAlign=top;spacingLeft=4;spacingRight=4;overflow=hidden;rotatable=0;points=[[0,0.5],[1,0.5]];portConstraint=eastwest;" vertex="1" parent="300">
                    <mxGeometry y="156" width="195" height="26" as="geometry"/>
                </mxCell>
                <mxCell id="380" value="- Entreprise : Array" style="text;strokeColor=none;fillColor=none;align=left;verticalAlign=top;spacingLeft=4;spacingRight=4;overflow=hidden;rotatable=0;points=[[0,0.5],[1,0.5]];portConstraint=eastwest;" vertex="1" parent="300">
                    <mxGeometry y="182" width="195" height="26" as="geometry"/>
                </mxCell>
                <mxCell id="379" value="- Correspondances : Array" style="text;strokeColor=none;fillColor=none;align=left;verticalAlign=top;spacingLeft=4;spacingRight=4;overflow=hidden;rotatable=0;points=[[0,0.5],[1,0.5]];portConstraint=eastwest;" vertex="1" parent="300">
                    <mxGeometry y="208" width="195" height="26" as="geometry"/>
                </mxCell>
                <mxCell id="378" value="- Tags : Array" style="text;strokeColor=none;fillColor=none;align=left;verticalAlign=top;spacingLeft=4;spacingRight=4;overflow=hidden;rotatable=0;points=[[0,0.5],[1,0.5]];portConstraint=eastwest;" vertex="1" parent="300">
                    <mxGeometry y="234" width="195" height="26" as="geometry"/>
                </mxCell>
                <mxCell id="305" value="" style="line;strokeWidth=1;fillColor=none;align=left;verticalAlign=middle;spacingTop=-1;spacingLeft=3;spacingRight=3;rotatable=0;labelPosition=right;points=[];portConstraint=eastwest;" vertex="1" parent="300">
                    <mxGeometry y="260" width="195" height="8" as="geometry"/>
                </mxCell>
                <mxCell id="306" value="HTTP" style="text;strokeColor=none;fillColor=none;align=center;verticalAlign=top;spacingLeft=4;spacingRight=4;overflow=hidden;rotatable=0;points=[[0,0.5],[1,0.5]];portConstraint=eastwest;" vertex="1" parent="300">
                    <mxGeometry y="268" width="195" height="26" as="geometry"/>
                </mxCell>
                <mxCell id="307" value=" GET()" style="text;strokeColor=none;fillColor=none;align=left;verticalAlign=top;spacingLeft=4;spacingRight=4;overflow=hidden;rotatable=0;points=[[0,0.5],[1,0.5]];portConstraint=eastwest;" vertex="1" parent="300">
                    <mxGeometry y="294" width="195" height="26" as="geometry"/>
                </mxCell>
                <mxCell id="308" value=" GET(id)" style="text;strokeColor=none;fillColor=none;align=left;verticalAlign=top;spacingLeft=4;spacingRight=4;overflow=hidden;rotatable=0;points=[[0,0.5],[1,0.5]];portConstraint=eastwest;" vertex="1" parent="300">
                    <mxGeometry y="320" width="195" height="26" as="geometry"/>
                </mxCell>
                <mxCell id="309" value=" POST(body)" style="text;strokeColor=none;fillColor=none;align=left;verticalAlign=top;spacingLeft=4;spacingRight=4;overflow=hidden;rotatable=0;points=[[0,0.5],[1,0.5]];portConstraint=eastwest;" vertex="1" parent="300">
                    <mxGeometry y="346" width="195" height="26" as="geometry"/>
                </mxCell>
                <mxCell id="387" value=" DELETE(id)" style="text;strokeColor=none;fillColor=none;align=left;verticalAlign=top;spacingLeft=4;spacingRight=4;overflow=hidden;rotatable=0;points=[[0,0.5],[1,0.5]];portConstraint=eastwest;" vertex="1" parent="300">
                    <mxGeometry y="372" width="195" height="26" as="geometry"/>
                </mxCell>
                <mxCell id="386" value=" PATCH(id) " style="text;strokeColor=none;fillColor=none;align=left;verticalAlign=top;spacingLeft=4;spacingRight=4;overflow=hidden;rotatable=0;points=[[0,0.5],[1,0.5]];portConstraint=eastwest;" vertex="1" parent="300">
                    <mxGeometry y="398" width="195" height="26" as="geometry"/>
                </mxCell>
                <mxCell id="310" value="Candidature" style="swimlane;fontStyle=1;align=center;verticalAlign=top;childLayout=stackLayout;horizontal=1;startSize=26;horizontalStack=0;resizeParent=1;resizeParentMax=0;resizeLast=0;collapsible=1;marginBottom=0;fillColor=#8448B3;" vertex="1" parent="1">
                    <mxGeometry x="805" y="1070" width="195" height="398" as="geometry"/>
                </mxCell>
                <mxCell id="311" value="- Id : Integer" style="text;strokeColor=none;fillColor=none;align=left;verticalAlign=top;spacingLeft=4;spacingRight=4;overflow=hidden;rotatable=0;points=[[0,0.5],[1,0.5]];portConstraint=eastwest;" vertex="1" parent="310">
                    <mxGeometry y="26" width="195" height="26" as="geometry"/>
                </mxCell>
                <mxCell id="312" value="- Etudiant : String" style="text;strokeColor=none;fillColor=none;align=left;verticalAlign=top;spacingLeft=4;spacingRight=4;overflow=hidden;rotatable=0;points=[[0,0.5],[1,0.5]];portConstraint=eastwest;" vertex="1" parent="310">
                    <mxGeometry y="52" width="195" height="26" as="geometry"/>
                </mxCell>
                <mxCell id="313" value="- Intitulé : String" style="text;strokeColor=none;fillColor=none;align=left;verticalAlign=top;spacingLeft=4;spacingRight=4;overflow=hidden;rotatable=0;points=[[0,0.5],[1,0.5]];portConstraint=eastwest;" vertex="1" parent="310">
                    <mxGeometry y="78" width="195" height="26" as="geometry"/>
                </mxCell>
                <mxCell id="314" value="- Type de Contrat : String" style="text;strokeColor=none;fillColor=none;align=left;verticalAlign=top;spacingLeft=4;spacingRight=4;overflow=hidden;rotatable=0;points=[[0,0.5],[1,0.5]];portConstraint=eastwest;" vertex="1" parent="310">
                    <mxGeometry y="104" width="195" height="26" as="geometry"/>
                </mxCell>
                <mxCell id="377" value="- Description : String" style="text;strokeColor=none;fillColor=none;align=left;verticalAlign=top;spacingLeft=4;spacingRight=4;overflow=hidden;rotatable=0;points=[[0,0.5],[1,0.5]];portConstraint=eastwest;" vertex="1" parent="310">
                    <mxGeometry y="130" width="195" height="26" as="geometry"/>
                </mxCell>
                <mxCell id="376" value="- Entreprise : Array" style="text;strokeColor=none;fillColor=none;align=left;verticalAlign=top;spacingLeft=4;spacingRight=4;overflow=hidden;rotatable=0;points=[[0,0.5],[1,0.5]];portConstraint=eastwest;" vertex="1" parent="310">
                    <mxGeometry y="156" width="195" height="26" as="geometry"/>
                </mxCell>
                <mxCell id="375" value="- Correspondances : String" style="text;strokeColor=none;fillColor=none;align=left;verticalAlign=top;spacingLeft=4;spacingRight=4;overflow=hidden;rotatable=0;points=[[0,0.5],[1,0.5]];portConstraint=eastwest;" vertex="1" parent="310">
                    <mxGeometry y="182" width="195" height="26" as="geometry"/>
                </mxCell>
                <mxCell id="374" value="-Tags : Array" style="text;strokeColor=none;fillColor=none;align=left;verticalAlign=top;spacingLeft=4;spacingRight=4;overflow=hidden;rotatable=0;points=[[0,0.5],[1,0.5]];portConstraint=eastwest;" vertex="1" parent="310">
                    <mxGeometry y="208" width="195" height="26" as="geometry"/>
                </mxCell>
                <mxCell id="315" value="" style="line;strokeWidth=1;fillColor=none;align=left;verticalAlign=middle;spacingTop=-1;spacingLeft=3;spacingRight=3;rotatable=0;labelPosition=right;points=[];portConstraint=eastwest;" vertex="1" parent="310">
                    <mxGeometry y="234" width="195" height="8" as="geometry"/>
                </mxCell>
                <mxCell id="316" value="HTTP" style="text;strokeColor=none;fillColor=none;align=center;verticalAlign=top;spacingLeft=4;spacingRight=4;overflow=hidden;rotatable=0;points=[[0,0.5],[1,0.5]];portConstraint=eastwest;" vertex="1" parent="310">
                    <mxGeometry y="242" width="195" height="26" as="geometry"/>
                </mxCell>
                <mxCell id="317" value=" GET()" style="text;strokeColor=none;fillColor=none;align=left;verticalAlign=top;spacingLeft=4;spacingRight=4;overflow=hidden;rotatable=0;points=[[0,0.5],[1,0.5]];portConstraint=eastwest;" vertex="1" parent="310">
                    <mxGeometry y="268" width="195" height="26" as="geometry"/>
                </mxCell>
                <mxCell id="318" value=" GET(id)" style="text;strokeColor=none;fillColor=none;align=left;verticalAlign=top;spacingLeft=4;spacingRight=4;overflow=hidden;rotatable=0;points=[[0,0.5],[1,0.5]];portConstraint=eastwest;" vertex="1" parent="310">
                    <mxGeometry y="294" width="195" height="26" as="geometry"/>
                </mxCell>
                <mxCell id="319" value=" POST(body)" style="text;strokeColor=none;fillColor=none;align=left;verticalAlign=top;spacingLeft=4;spacingRight=4;overflow=hidden;rotatable=0;points=[[0,0.5],[1,0.5]];portConstraint=eastwest;" vertex="1" parent="310">
                    <mxGeometry y="320" width="195" height="26" as="geometry"/>
                </mxCell>
                <mxCell id="384" value=" DELETE(id)" style="text;strokeColor=none;fillColor=none;align=left;verticalAlign=top;spacingLeft=4;spacingRight=4;overflow=hidden;rotatable=0;points=[[0,0.5],[1,0.5]];portConstraint=eastwest;" vertex="1" parent="310">
                    <mxGeometry y="346" width="195" height="26" as="geometry"/>
                </mxCell>
                <mxCell id="385" value=" PATCH(id) " style="text;strokeColor=none;fillColor=none;align=left;verticalAlign=top;spacingLeft=4;spacingRight=4;overflow=hidden;rotatable=0;points=[[0,0.5],[1,0.5]];portConstraint=eastwest;" vertex="1" parent="310">
                    <mxGeometry y="372" width="195" height="26" as="geometry"/>
                </mxCell>
                <mxCell id="320" value="" style="endArrow=none;html=1;exitX=0.497;exitY=1.019;exitDx=0;exitDy=0;exitPerimeter=0;entryX=0.499;entryY=-0.015;entryDx=0;entryDy=0;entryPerimeter=0;" edge="1" parent="1" source="385" target="267">
                    <mxGeometry width="50" height="50" relative="1" as="geometry">
                        <mxPoint x="885" y="1320" as="sourcePoint"/>
                        <mxPoint x="885" y="1620" as="targetPoint"/>
                    </mxGeometry>
                </mxCell>
                <mxCell id="321" value="1" style="edgeLabel;html=1;align=center;verticalAlign=middle;resizable=0;points=[];" vertex="1" connectable="0" parent="320">
                    <mxGeometry x="-0.7431" y="2" relative="1" as="geometry">
                        <mxPoint x="-2" as="offset"/>
                    </mxGeometry>
                </mxCell>
                <mxCell id="322" value="0..*" style="edgeLabel;html=1;align=center;verticalAlign=middle;resizable=0;points=[];" vertex="1" connectable="0" parent="320">
                    <mxGeometry x="0.7351" y="1" relative="1" as="geometry">
                        <mxPoint as="offset"/>
                    </mxGeometry>
                </mxCell>
                <mxCell id="323" value="" style="endArrow=none;html=1;entryX=0;entryY=0.5;entryDx=0;entryDy=0;exitX=1.001;exitY=-0.11;exitDx=0;exitDy=0;exitPerimeter=0;" edge="1" parent="1" source="360" target="313">
                    <mxGeometry width="50" height="50" relative="1" as="geometry">
                        <mxPoint x="720" y="1140" as="sourcePoint"/>
                        <mxPoint x="790" y="1161" as="targetPoint"/>
                    </mxGeometry>
                </mxCell>
                <mxCell id="324" value="1" style="edgeLabel;html=1;align=center;verticalAlign=middle;resizable=0;points=[];" vertex="1" connectable="0" parent="323">
                    <mxGeometry x="0.7117" y="1" relative="1" as="geometry">
                        <mxPoint as="offset"/>
                    </mxGeometry>
                </mxCell>
                <mxCell id="325" value="1" style="edgeLabel;html=1;align=center;verticalAlign=middle;resizable=0;points=[];" vertex="1" connectable="0" parent="323">
                    <mxGeometry x="-0.7286" relative="1" as="geometry">
                        <mxPoint as="offset"/>
                    </mxGeometry>
                </mxCell>
            </root>
        </mxGraphModel>
    </diagram>
</mxfile>